<?xml version="1.0" standalone="no"?>
<!DOCTYPE svg PUBLIC "-//W3C//DTD SVG 1.1//EN" "http://www.w3.org/Graphics/SVG/1.1/DTD/svg11.dtd" >
<svg xmlns="http://www.w3.org/2000/svg" xmlns:xlink="http://www.w3.org/1999/xlink" version="1.1" viewBox="-378 0 829 1024">
  <g transform="matrix(1 0 0 -1 0 960)">
   <path fill="white" fill-opacity="1"
d="M277.576 709.353q-10.0068 2.30664 -16.501 1.41895q-6.49414 -0.886719 -10.0322 -3.95605q-3.53711 -3.06738 -4.15332 -8.84277q-0.616211 -5.77441 1.13184 -13.2402q1.74805 -7.46484 5.82422 -17.1455q18.1514 -40.083 26.3545 -82.0215
q8.20215 -41.9404 6.62695 -78.543q-1.5752 -36.6006 -9.62695 -70.7139q-8.05078 -34.1133 -21.6709 -60.8496q-13.6211 -26.7363 -30.291 -46.4814q-16.6729 -19.7471 -34.7529 -29.9248q-1.85742 8.08105 -1.89844 16.374q-2.49023 22.9727 -7.4043 45.4668
t-11.1455 40.5527q-6.22949 18.0576 -13.1426 32.0508q-6.91309 13.9941 -13.9355 21.6445q-7.02344 7.65137 -12.9863 7.65137q-4.58789 0 -6.83984 -7.15234t-2.60938 -20.7158q-0.357422 -13.5664 -0.0869141 -28.3359q0.271484 -14.7705 0.239258 -35.0127
q-0.0332031 -20.2422 -1.14453 -35.7412q-1.78516 1.05078 -5.21973 3.08984q-7.64551 4.53809 -11.418 6.67383q-3.77344 2.13379 -10.0752 5.33789q-6.30176 3.20312 -10.5625 4.45312q-4.25879 1.25 -10.0576 2.49316q-5.7998 1.24316 -11.5742 1.08301
q-5.77344 -0.15918 -12.2842 -1.29883q-22.8984 -4.01758 -60.583 -45.2256q-5.57617 -6.09668 -15.3857 -17.3643q-14.9121 -17.1279 -18.2207 -19.0518q-2.12988 -1.23926 -2.39355 0.720703q-3.3916 20.9492 -3.69922 45.3779t2.38574 48.8047
q2.69238 24.377 7.61035 48.4482q4.91797 24.0723 12.3232 45.2734q7.4043 21.2002 16.1533 38.249q8.74902 17.0469 19.4707 28.4062q10.7227 11.3584 21.9307 14.7812q3.6748 1.46973 10.0283 -1.05371q6.35254 -2.52441 19.8105 -9.20508
q13.4561 -6.67969 25.6904 -11.3359q7.48535 -2.6709 11.9766 -2.03125q4.49316 0.639648 6.10059 3.94922q1.60742 3.30762 1.17871 7.47949q-0.427734 4.1709 -2.78516 8.56152q-2.35645 4.39062 -5.79199 7.19531q-13.3711 9.66211 -34.5078 16.5t-37.6318 6.83789
q-12.5566 0 -29.3135 -4.12598q-16.7568 -4.12695 -27.8779 -9.95703q-19.5303 -9.53613 -36.4082 -30.2373t-28.3262 -46.6992q-11.4473 -25.998 -18.6191 -56.4121q-7.16895 -30.4141 -8.63477 -59.1904t3.06152 -55.2314q4.52637 -26.4561 15.125 -44.3516
q11.1836 -19.6377 34.8945 -36.0459q23.708 -16.4102 46.0264 -19.958q10.4531 -1.19238 18.6611 -1.49316q8.20703 -0.299805 15.9746 0.588867q7.76855 0.891602 13.9141 2.60938q6.14844 1.71875 12.7197 5.31445q6.57227 3.59668 12.1328 7.90723
q5.55957 4.31152 12.4102 11.1855t13.2979 14.3506q6.44531 7.47559 15.0332 18.1514q3.80273 -3.04004 9.85156 -5.95996q6.0498 -2.91992 10.7939 -4.00684q-8.52344 -26.4795 -24.9609 -53.3037q-16.4385 -26.8232 -35.6963 -48.2256
q-19.2568 -21.4043 -40.6133 -39.7539q-21.3535 -18.3506 -40.1572 -29.6982q-18.8047 -11.3467 -33.8574 -16.1221q-15.0537 -4.77441 -22.1523 -0.841797q-22.8467 15.541 -40.042 39.0293t-27.9102 52.4521q-10.7139 28.9619 -16.5322 63.8574
q-5.81836 34.8945 -6.38086 73.2266t3.04883 80.583q3.61035 42.251 11.249 85.8994q7.64062 43.6504 18.7305 89.2061q11.0898 45.5566 24.9814 90.4736q13.8936 44.915 30.4824 89.7256q7.48242 19.7344 16.4951 46.541q9.01367 26.8066 17.2881 53.8516t13.6777 47.4482
q3.56055 17.2246 -0.857422 30.7461t-14.541 21.3057q-10.124 7.78711 -24.877 10.9199q-14.7559 3.13281 -31.0742 0.962891q-16.3174 -2.16797 -33.9746 -10.0293q-17.6562 -7.86328 -32.7871 -20.6826q-22.0225 -18.6797 -44.4121 -53.8887
q-22.3906 -35.208 -41.9316 -79.1416q-19.5391 -43.9336 -37.7666 -97.3926q-20.999 -61.4951 -34.7139 -120.985q-13.7158 -59.4893 -19.8496 -114.196t-4.79395 -105.341q1.33887 -50.6348 9.87109 -94.7148q8.53125 -44.0801 24.7627 -81.9971
q16.2314 -37.9199 39.2676 -67.5127q23.0361 -29.5918 54 -50.9346q30.9629 -21.3428 68.3809 -32.5684q37.8799 -11.3096 72.8535 -15.4326q34.9736 -4.12402 64.2227 -1.42285q29.248 2.69922 55.499 11.04q26.25 8.34082 47.375 21.5078q21.124 13.168 39.1113 30.4609
q17.9883 17.2949 31.4492 37.417q13.46 20.124 23.6484 42.8584q10.1865 22.7334 16.4434 46.3008q6.25781 23.5674 9.15137 48.2012q17.501 -2.23926 35.1455 -2.23926q3.78711 0 7.56934 0.103516q16.2451 0.324219 32.1934 2.96387q15.9492 2.63867 34.0791 9.01562
q18.1299 6.375 34.5225 16.043q16.3916 9.66797 32.7168 25.1211q16.3262 15.4551 29.5234 35.1055q13.1992 19.6514 24.084 47.1396t17.2002 60.1504q3.7832 19.4971 4.11133 40.0322q0.330078 20.5352 -2.70703 40.3857q-3.03613 19.8506 -8.83301 39.4375
q-5.7959 19.5869 -14.5117 37.5869q-8.71582 17.999 -19.4814 34.4092q-10.7646 16.4082 -24.002 30.3262q-13.2402 13.918 -27.8174 24.9189q-14.5781 11.001 -31.1846 18.6064q-16.6055 7.60547 -33.8564 10.9941z" />
  </g>

</svg>
