<svg class="svg-icon" 
	viewBox="0 0 1024 1024"
	version="1.1"
	xmlns="http://www.w3.org/2000/svg"
	xmlns:svg="http://www.w3.org/2000/svg"
>
<path d="M512 64a448 448 0 1 0 448 448 448 448 0 0 0-448-448z m3.2 704a48 48 0 0 1-48-47.36 48.64 48.64 0 0 1 48-48 48 48 0 0 1 47.36 48 47.36 47.36 0 0 1-47.36 47.36z m80.64-271.36A131.84 131.84 0 0 0 547.84 576v32a33.28 33.28 0 0 1-64 0v-24.32a181.76 181.76 0 0 1 67.2-120.32 165.76 165.76 0 0 0 60.16-104.96 83.2 83.2 0 0 0-90.24-89.6c-64 0-99.84 41.6-101.76 119.68a32 32 0 0 1-31.36 28.8 31.36 31.36 0 0 1-30.72-28.8V384a154.24 154.24 0 0 1 163.84-166.4 135.04 135.04 0 0 1 147.2 140.8 196.48 196.48 0 0 1-72.32 138.24z"  />
</svg>