<?xml version="1.0" encoding="UTF-8" standalone="no"?>
<!DOCTYPE svg PUBLIC "-//W3C//DTD SVG 20010904//EN"
              "http://www.w3.org/TR/2001/REC-SVG-20010904/DTD/svg10.dtd">

<svg xmlns="http://www.w3.org/2000/svg"
     width="32.3427mm" height="32.3427mm"
     viewBox="0 0 382 382">
  <path id="Selection #1"
        fill="white" fill-opacity="1"
        d="M 89.00,187.00
           C 89.00,187.00 47.00,187.00 47.00,187.00
             44.30,187.04 40.75,186.92 39.02,189.43
             37.57,191.54 38.00,198.26 38.00,201.00
             38.00,201.00 38.00,229.00 38.00,229.00
             38.01,236.22 37.85,238.85 46.00,239.00
             46.00,239.00 89.00,239.00 89.00,239.00
             89.00,239.00 89.00,320.00 89.00,320.00
             89.00,323.15 88.90,325.93 89.79,329.00
             93.55,342.02 103.93,342.00 115.00,342.00
             115.00,342.00 130.00,342.00 130.00,342.00
             130.00,342.00 263.00,342.00 263.00,342.00
             266.15,342.00 268.93,342.10 272.00,341.21
             285.02,337.45 285.00,327.07 285.00,316.00
             285.00,316.00 285.00,300.00 285.00,300.00
             285.00,300.00 285.00,162.00 285.00,162.00
             285.00,162.00 320.00,162.00 320.00,162.00
             320.00,162.00 333.00,161.07 333.00,161.07
             333.00,161.07 339.00,161.07 339.00,161.07
             340.96,161.19 342.88,161.45 344.57,160.17
             348.23,157.41 347.00,144.53 347.00,140.00
             347.00,140.00 347.00,70.00 347.00,70.00
             346.99,62.70 347.50,59.16 339.00,58.93
             339.00,58.93 296.00,58.93 296.00,58.93
             296.00,58.93 290.02,58.93 290.02,58.93
             281.85,57.23 287.37,50.31 282.72,42.00
             278.38,34.24 273.11,33.01 265.00,33.00
             265.00,33.00 109.00,33.00 109.00,33.00
             94.72,33.02 89.02,40.12 89.00,54.00
             89.00,54.00 89.00,187.00 89.00,187.00 Z
           M 274.00,59.00
           C 274.00,59.00 247.00,59.00 247.00,59.00
             247.00,59.00 193.00,59.00 193.00,59.00
             190.23,59.01 186.56,58.71 184.31,60.60
             182.03,62.53 182.05,65.27 182.00,68.00
             182.00,68.00 182.00,86.00 182.00,86.00
             182.00,86.00 182.00,171.00 182.00,171.00
             182.01,174.76 181.96,182.57 188.00,181.26
             190.80,180.65 194.94,176.06 197.00,174.00
             204.56,166.45 206.02,162.02 217.00,162.00
             217.00,162.00 275.00,162.00 275.00,162.00
             275.00,162.00 275.00,261.00 275.00,261.00
             274.99,267.74 275.49,269.86 268.00,270.00
             268.00,270.00 224.00,270.00 224.00,270.00
             224.00,270.00 108.00,270.00 108.00,270.00
             105.70,270.00 101.59,270.38 100.02,268.40
             98.85,266.92 99.01,263.82 99.00,262.00
             99.00,262.00 99.00,239.00 99.00,239.00
             99.00,239.00 130.00,239.00 130.00,239.00
             133.60,239.00 140.98,238.51 144.00,240.02
             149.39,242.72 159.97,256.90 165.00,258.34
             170.78,260.01 170.97,253.81 171.00,250.00
             171.00,250.00 171.00,198.00 171.00,198.00
             170.98,187.70 168.94,187.02 159.00,187.00
             159.00,187.00 99.00,187.00 99.00,187.00
             99.00,187.00 99.00,91.00 99.00,91.00
             99.00,91.00 100.00,74.00 100.00,74.00
             100.00,74.00 100.00,55.00 100.00,55.00
             100.01,52.08 99.71,48.67 101.60,46.23
             103.98,43.14 107.46,43.05 111.00,43.00
             111.00,43.00 132.00,43.00 132.00,43.00
             132.00,43.00 236.00,43.00 236.00,43.00
             236.00,43.00 261.00,43.00 261.00,43.00
             263.37,43.00 266.80,42.87 268.98,43.74
             274.95,46.12 275.47,53.66 274.00,59.00 Z
           M 336.00,69.00
           C 336.00,69.00 336.00,151.00 336.00,151.00
             336.00,151.00 215.00,151.00 215.00,151.00
             201.05,151.02 202.96,156.15 192.00,164.00
             192.00,164.00 192.00,69.00 192.00,69.00
             192.00,69.00 336.00,69.00 336.00,69.00 Z
           M 211.15,84.74
           C 206.44,88.01 207.76,93.46 212.11,94.14
             212.11,94.14 231.00,94.14 231.00,94.14
             240.96,94.46 238.31,86.30 234.85,84.74
             231.53,83.24 214.93,83.76 211.15,84.74 Z
           M 252.23,84.74
           C 247.11,88.44 248.31,93.84 257.00,94.00
             257.00,94.00 311.00,94.00 311.00,94.00
             314.06,93.99 319.11,94.52 320.34,90.86
             322.18,85.39 315.80,84.07 312.00,84.00
             312.00,84.00 274.00,84.00 274.00,84.00
             268.24,84.00 257.32,83.39 252.23,84.74 Z
           M 210.31,106.02
           C 205.04,111.72 209.99,114.88 216.00,115.00
             216.00,115.00 269.00,115.00 269.00,115.00
             270.95,115.00 274.18,115.11 275.94,114.40
             280.01,112.76 280.66,108.29 276.85,106.02
             274.81,104.81 271.34,105.00 269.00,105.00
             269.00,105.00 230.00,105.00 230.00,105.00
             224.50,105.00 215.18,104.17 210.31,106.02 Z
           M 293.23,105.74
           C 289.95,108.12 288.98,112.49 293.23,114.40
             295.39,115.38 308.74,115.02 312.00,115.00
             313.96,114.99 316.90,115.13 318.57,113.98
             321.36,112.05 321.34,107.40 317.77,105.74
             314.58,104.24 296.93,104.76 293.23,105.74 Z
           M 212.06,126.01
           C 207.34,128.40 206.84,133.32 211.15,135.26
             213.65,136.39 224.63,136.02 228.00,136.00
             230.29,135.99 233.73,136.13 235.69,134.83
             238.33,133.06 238.79,128.12 235.69,126.60
             234.21,125.87 230.71,126.00 229.00,126.01
             229.00,126.01 212.06,126.01 212.06,126.01 Z
           M 253.06,125.94
           C 249.59,127.81 247.33,132.00 251.43,134.83
             253.48,136.24 257.56,136.00 260.00,136.00
             260.00,136.00 310.00,136.00 310.00,136.00
             313.71,135.99 318.94,136.40 320.34,131.95
             322.12,126.31 315.64,126.03 312.00,125.94
             312.00,125.94 272.00,125.94 272.00,125.94
             272.00,125.94 253.06,125.94 253.06,125.94 Z
           M 161.00,198.00
           C 161.00,198.00 161.00,241.00 161.00,241.00
             150.85,233.73 152.47,229.02 140.00,229.00
             140.00,229.00 48.00,229.00 48.00,229.00
             48.00,229.00 48.00,198.00 48.00,198.00
             48.00,198.00 161.00,198.00 161.00,198.00 Z
           M 274.91,280.00
           C 274.91,280.00 274.91,313.42 274.91,313.42
             274.78,316.68 274.24,326.42 272.40,328.72
             269.54,332.32 264.12,331.99 260.00,332.00
             260.00,332.00 117.00,332.00 117.00,332.00
             113.23,331.99 105.22,331.89 102.31,329.41
             99.56,327.04 100.02,322.39 99.58,319.00
             99.58,319.00 99.00,289.00 99.00,289.00
             99.01,282.26 98.51,280.14 106.00,280.00
             106.00,280.00 152.00,280.00 152.00,280.00
             152.00,280.00 200.00,280.00 200.00,280.00
             200.00,280.00 274.91,280.00 274.91,280.00 Z
           M 183.00,285.52
           C 178.73,286.69 175.41,287.92 172.21,291.19
             164.03,299.55 164.79,315.01 174.09,322.21
             179.11,326.10 186.89,326.98 193.00,325.61
             206.57,322.56 212.12,304.73 203.36,293.04
             198.67,286.77 190.51,284.39 183.00,285.52 Z
           M 184.00,296.43
           C 188.08,295.85 191.59,295.87 194.57,299.23
             198.84,304.03 197.16,313.13 189.98,315.35
             178.37,318.94 170.83,301.74 184.00,296.43 Z" />
</svg>
